<svg width="32" height="32" viewBox="0 0 32 32" fill="none" xmlns="http://www.w3.org/2000/svg">
  <g clip-path="url(#clip0_global_params)">

    <!-- Parameters table (occupies left ~60% of canvas) -->
    <!-- Header bar -->
    <rect x="1" y="1" width="19" height="4" fill="#999999"/>
    <!-- Header pip -->
    <rect x="2" y="2" width="2" height="2" fill="#D9D9D9"/>

    <!-- Table body -->
    <rect x="1" y="5" width="19" height="16" fill="#D9D9D9"/>

    <!-- Row dividers -->
    <rect x="1" y="9"  width="19" height="1" fill="#BBBBBB"/>
    <rect x="1" y="13" width="19" height="1" fill="#BBBBBB"/>
    <rect x="1" y="17" width="19" height="1" fill="#BBBBBB"/>

    <!-- Column divider -->
    <rect x="10" y="5" width="1" height="16" fill="#BBBBBB"/>

    <!-- Name column stubs -->
    <rect x="2"  y="6.5"  width="6" height="1.5" rx="0.5" fill="#666666"/>
    <rect x="2"  y="10.5" width="5" height="1.5" rx="0.5" fill="#666666"/>
    <rect x="2"  y="14.5" width="7" height="1.5" rx="0.5" fill="#666666"/>
    <rect x="2"  y="18.5" width="4" height="1.5" rx="0.5" fill="#666666"/>

    <!-- Value column stubs -->
    <rect x="12" y="6.5"  width="6" height="1.5" rx="0.5" fill="#666666"/>
    <rect x="12" y="10.5" width="5" height="1.5" rx="0.5" fill="#666666"/>
    <rect x="12" y="14.5" width="7" height="1.5" rx="0.5" fill="#666666"/>
    <rect x="12" y="18.5" width="6" height="1.5" rx="0.5" fill="#666666"/>

    <!-- Table border lines -->
    <rect x="1"  y="1"  width="1"  height="20" fill="#BBBBBB"/>
    <rect x="19" y="1"  width="1"  height="20" fill="#BBBBBB"/>
    <rect x="1"  y="20" width="19" height="1"  fill="#BBBBBB"/>

    <!-- Globe badge — bottom-right, 9px radius -->
    <circle cx="23" cy="23" r="9" fill="#73C5FF"/>

    <!-- Globe grid lines -->
    <!-- Equator -->
    <line x1="14" y1="23" x2="32" y2="23" stroke="#3AABEE" stroke-width="0.75"/>
    <!-- Upper latitude -->
    <ellipse cx="23" cy="19" rx="6.2" ry="1.8" fill="none" stroke="#3AABEE" stroke-width="0.75"/>
    <!-- Lower latitude -->
    <ellipse cx="23" cy="27" rx="6.2" ry="1.8" fill="none" stroke="#3AABEE" stroke-width="0.75"/>
    <!-- Central meridian -->
    <line x1="23" y1="14" x2="23" y2="32" stroke="#3AABEE" stroke-width="0.75"/>
    <!-- Left longitude -->
    <path d="M23 14 C19 16.5 19 29.5 23 32" fill="none" stroke="#3AABEE" stroke-width="0.75"/>
    <!-- Right longitude -->
    <path d="M23 14 C27 16.5 27 29.5 23 32" fill="none" stroke="#3AABEE" stroke-width="0.75"/>
    <!-- Globe outer ring -->
    <circle cx="23" cy="23" r="9" fill="none" stroke="#3AABEE" stroke-width="1"/>

  </g>
  <defs>
    <clipPath id="clip0_global_params">
      <rect width="32" height="32" fill="white"/>
    </clipPath>
  </defs>
</svg>
