<svg width="64" height="64" viewBox="0 0 64 64" fill="none" xmlns="http://www.w3.org/2000/svg">
  <g clip-path="url(#clip_lp64)">

    <!-- Parameters table -->
    <rect x="2" y="2" width="38" height="8" fill="#999999"/>
    <rect x="4" y="4" width="4" height="4" fill="#D9D9D9"/>
    <rect x="10" y="4" width="4" height="4" fill="#D9D9D9"/>
    <rect x="2" y="10" width="38" height="34" fill="#D9D9D9"/>
    <rect x="2" y="17" width="38" height="1.5" fill="#BBBBBB"/>
    <rect x="2" y="24" width="38" height="1.5" fill="#BBBBBB"/>
    <rect x="2" y="31" width="38" height="1.5" fill="#BBBBBB"/>
    <rect x="2" y="38" width="38" height="1.5" fill="#BBBBBB"/>
    <rect x="22" y="10" width="1.5" height="34" fill="#BBBBBB"/>
    <rect x="4"  y="12" width="13" height="3" rx="1" fill="#666666"/>
    <rect x="4"  y="19" width="10" height="3" rx="1" fill="#666666"/>
    <rect x="4"  y="26" width="14" height="3" rx="1" fill="#666666"/>
    <rect x="4"  y="33" width="8"  height="3" rx="1" fill="#666666"/>
    <rect x="4"  y="40" width="12" height="3" rx="1" fill="#666666"/>
    <rect x="25" y="12" width="11" height="3" rx="1" fill="#666666"/>
    <rect x="25" y="19" width="9"  height="3" rx="1" fill="#666666"/>
    <rect x="25" y="26" width="13" height="3" rx="1" fill="#666666"/>
    <rect x="25" y="33" width="10" height="3" rx="1" fill="#666666"/>
    <rect x="25" y="40" width="12" height="3" rx="1" fill="#666666"/>
    <rect x="2"    y="2"  width="1.5" height="43" fill="#BBBBBB"/>
    <rect x="38.5" y="2"  width="1.5" height="43" fill="#BBBBBB"/>
    <rect x="2"    y="44" width="38"  height="1.5" fill="#BBBBBB"/>

    <!-- Chain link badge: original paths scaled 2x (32x32), placed at lower-right (32,32) -->
    <g transform="translate(32,32) scale(2)">
      <path d="M8.70977 7.29C8.63977 7.36 8.56977 7.46 8.52977 7.54C8.59976 7.84 8.59976 8.16 8.52977 8.46C8.44977 8.81 8.26977 9.15 7.99977 9.41L5.16977 12.24C4.38977 13.02 3.11977 13.02 2.33977 12.24C1.55977 11.46 1.55977 10.19 2.33977 9.41L5.12977 6.62C5.33977 5.96 5.70977 5.33 6.22977 4.81L6.53977 4.5C5.65977 4.51 4.77977 4.85 4.10977 5.53L1.27977 8.35C-0.0802344 9.71 -0.0802344 11.94 1.27977 13.3C2.63977 14.66 4.86977 14.66 6.22977 13.3L9.05977 10.47C9.52977 10 9.83976 9.42 9.97976 8.82C10.1898 7.99 10.0798 7.11 9.65977 6.34L8.70977 7.29Z" fill="#73C5FF"/>
      <path d="M7.28973 8.71018C7.35973 8.64018 7.41973 8.55018 7.46973 8.46018C7.39973 8.16018 7.39973 7.84018 7.46973 7.54018C7.54973 7.19018 7.72973 6.85018 7.99973 6.59018L10.8297 3.76018C11.6097 2.98018 12.8797 2.98018 13.6597 3.76018C14.4397 4.54018 14.4397 5.81018 13.6597 6.59018L10.8697 9.38018C10.6597 10.0402 10.2897 10.6702 9.76973 11.1902L9.45973 11.5002C10.3397 11.4902 11.2197 11.1502 11.8897 10.4802L14.7197 7.65018C16.0797 6.29018 16.0797 4.06018 14.7197 2.70018C13.3597 1.34018 11.1297 1.34018 9.76973 2.70018L6.93973 5.53018C6.46973 5.99018 6.15973 6.57018 6.01973 7.18018C5.80973 8.01018 5.91973 8.89018 6.33973 9.66018L7.28973 8.71018Z" fill="#3AABEE"/>
    </g>

  </g>
  <defs>
    <clipPath id="clip_lp64">
      <rect width="64" height="64"/>
    </clipPath>
  </defs>
</svg>
